<?xml version="1.0" standalone="no"?>
<!DOCTYPE svg PUBLIC "-//W3C//DTD SVG 20010904//EN"
 "http://www.w3.org/TR/2001/REC-SVG-20010904/DTD/svg10.dtd">
<svg version="1.0" xmlns="http://www.w3.org/2000/svg"
 width="695.000000pt" height="468.000000pt" viewBox="0 0 695.000000 468.000000"
 preserveAspectRatio="xMidYMid meet">

<g transform="translate(0.000000,468.000000) scale(0.100000,-0.100000)"
fill="#000000" stroke="none">
<path d="M3357 4656 c-8 -8 -28 -68 -46 -133 -365 -1373 -500 -1868 -509
-1868 -5 0 -328 263 -717 585 -388 322 -715 589 -726 594 -26 12 -59 -18 -59
-53 1 -14 97 -431 214 -926 118 -495 213 -901 212 -902 -1 -1 -301 63 -666
141 -366 79 -687 148 -714 154 -45 9 -51 8 -73 -14 -20 -21 -22 -27 -12 -46 7
-12 178 -204 381 -425 l369 -403 -480 0 c-449 0 -480 -1 -501 -18 -17 -14 -21
-25 -17 -44 5 -19 215 -175 886 -656 483 -348 888 -632 899 -632 22 0 52 30
52 52 0 9 -13 27 -28 40 -16 12 -379 275 -808 583 l-780 560 456 5 c487 5 490
6 490 54 0 14 -123 156 -360 415 -198 217 -359 395 -358 397 2 1 303 -62 670
-142 367 -79 674 -141 683 -138 41 16 40 21 -170 911 -113 477 -204 873 -203
879 2 6 309 -242 683 -552 374 -310 691 -567 703 -570 16 -5 29 -1 41 12 12
12 108 357 271 969 139 523 255 953 259 957 3 4 170 -394 371 -885 l365 -892
31 -3 c26 -3 142 73 778 503 411 279 750 504 753 501 4 -3 -132 -431 -300
-951 -169 -519 -307 -955 -307 -968 0 -27 17 -47 41 -47 9 0 154 41 324 91
169 49 311 89 316 87 5 -2 -113 -216 -262 -476 -286 -498 -293 -513 -235 -528
12 -3 313 37 667 89 565 82 685 97 644 80 -5 -2 -392 -217 -860 -477 -780
-433 -850 -475 -853 -500 -4 -33 13 -56 42 -56 29 0 2005 1099 2017 1122 14
25 -13 68 -43 68 -11 0 -347 -47 -746 -105 -399 -58 -731 -104 -737 -103 -7 2
112 219 266 488 153 267 279 490 279 497 0 19 -30 43 -54 43 -13 0 -168 -43
-346 -95 -178 -52 -325 -93 -327 -91 -2 2 140 448 317 992 302 932 319 989
305 1011 -9 13 -25 23 -36 23 -11 0 -374 -240 -807 -532 -432 -293 -791 -534
-797 -536 -6 -1 -181 414 -390 924 -209 510 -385 933 -393 940 -17 18 -47 18
-65 0z"/>
<path d="M3602 2543 c-13 -12 -73 -184 -188 -538 -92 -286 -169 -521 -170
-523 -1 -2 -161 92 -356 208 -195 115 -363 210 -375 210 -11 0 -27 -8 -35 -17
-10 -12 -38 -152 -82 -409 -36 -215 -66 -394 -66 -397 0 -4 -138 -7 -306 -9
-289 -3 -306 -4 -320 -22 -8 -11 -14 -28 -14 -38 0 -9 129 -201 286 -425 437
-621 400 -573 440 -573 27 0 37 5 46 25 l11 25 787 0 788 0 16 -25 c19 -29 66
-34 86 -10 18 22 382 1484 374 1507 -15 49 -35 45 -323 -67 -160 -62 -276
-102 -280 -97 -3 6 -57 268 -120 583 -116 580 -124 609 -165 609 -8 0 -23 -8
-34 -17z"/>
</g>
</svg>
